#!OML:ASF F:\VICON\USERDATA\INSTALL\rory7\rory7.ASF
:FULLY-SPECIFIED
:DEGREES
51
root 0.115152 18.843 2.58854 -3.32503 0.402955 2.02393
lowerback 5.59959 1.38274 -2.31183
upperback 1.00012 1.67081 -1.42104
thorax -2.13221 0.844988 -0.287631
lowerneck -9.40088 -2.39092 -6.62311
upperneck 10.998 -3.61604 10.5531
head 5.15664 -1.37209 4.1345
rclavicle -2.71465e-015 -1.59028e-015
rhumerus -34.6131 37.9765 -96.1357
rradius 97.0866
rwrist -26.7241
rhand -25.9724 14.2797
rfingers 7.12502
rthumb 0.572412 -15.6993
lclavicle -2.71465e-015 -1.59028e-015
lhumerus -28.212 -39.5471 98.0147
lradius 101.943
lwrist 35.29
lhand -2.29166 22.5011
lfingers 7.12502
lthumb 23.3936 51.0992
rfemur 8.30228 16.6041 18.3365
rtibia 9.16872
rfoot -13.7508 -25.435
rtoes -3.2196
lfemur 6.41112 -14.5256 -19.1142
ltibia 7.28055
lfoot -8.84852 18.9417
ltoes -9.50073
52
root 0.115004 18.8438 2.58505 -3.27996 0.425624 2.01657
lowerback 5.59629 1.38943 -2.30609
upperback 0.967782 1.67914 -1.43113
thorax -2.1633 0.849439 -0.302313
lowerneck -9.35405 -2.37827 -6.66903
upperneck 11.3032 -3.62054 10.5727
head 5.24371 -1.37148 4.15156
rclavicle -4.53478e-016 1.59028e-015
rhumerus -34.6586 37.9873 -96.2036
rradius 97.12
rwrist -26.8653
rhand -26.3605 14.3455
rfingers 7.12502
rthumb 0.197549 -15.6342
lclavicle -4.53478e-016 1.59028e-015
lhumerus -28.3661 -39.7345 98.0826
lradius 101.909
lwrist 36.0697
lhand -3.76105 22.6641
lfingers 7.12502
lthumb 21.9834 51.4349
rfemur 8.25741 16.6061 18.3309
rtibia 9.14747
rfoot -13.729 -25.4681
rtoes -3.1728
lfemur 6.34487 -14.5491 -19.0835
ltibia 7.26527
lfoot -8.83512 18.9239
ltoes -9.42995
53
root 0.117442 18.8445 2.583 -3.21277 0.44425 2.06478
lowerback 5.5041 1.39289 -2.3271
upperback 0.974603 1.6853 -1.46038
thorax -2.10458 0.852196 -0.318493
lowerneck -9.35245 -2.38545 -6.69292
upperneck 11.6269 -3.65209 10.5724
head 5.34613 -1.38289 4.1566
rclavicle -2.35001e-014 2.14687e-014
rhumerus -34.497 38.0255 -96.1636
rradius 97.0992
rwrist -26.8844
rhand -26.7243 14.0918
rfingers 7.12502
rthumb -0.153849 -15.8878
lclavicle -2.35001e-014 2.14687e-014
lhumerus -28.3679 -39.9043 98.0612
lradius 101.844
lwrist 37.0872
lhand -4.86157 22.9792
lfingers 7.12502
lthumb 20.9264 51.8704
rfemur 8.20652 16.6172 18.2432
rtibia 9.09216
rfoot -13.7212 -25.4902
rtoes -3.14185
lfemur 6.22988 -14.5632 -19.1231
ltibia 7.31377
lfoot -8.85411 18.9057
ltoes -9.36311
54
root 0.119876 18.8454 2.58253 -3.14833 0.466595 2.01948
lowerback 5.36349 1.38733 -2.26307
upperback 1.01717 1.68769 -1.46093
thorax -1.9804 0.85205 -0.350519
lowerneck -9.45627 -2.45734 -6.68653
upperneck 12.032 -3.76875 10.5046
head 5.49821 -1.43474 4.12847
rclavicle -2.47798e-014 2.3059e-014
rhumerus -34.2056 38.1045 -96.0325
rradius 97.0194
rwrist -26.8267
rhand -26.8296 13.8533
rfingers 7.12502
rthumb -0.255534 -16.1263
lclavicle -2.47798e-014 2.3059e-014
lhumerus -28.2801 -40.084 97.9909
lradius 101.785
lwrist 38.2549
lhand -5.71154 23.3012
lfingers 7.12502
lthumb 20.1096 52.2804
rfemur 8.17835 16.6176 18.2631
rtibia 9.00212
rfoot -13.677 -25.5106
rtoes -3.31089
lfemur 6.09171 -14.587 -19.0619
ltibia 7.43006
lfoot -8.94221 18.8804
ltoes -9.16383
55
root 0.120933 18.8466 2.5796 -3.12514 0.420778 1.89756
lowerback 5.34275 1.39729 -2.15083
upperback 1.02176 1.7088 -1.42998
thorax -1.96201 0.861875 -0.382331
lowerneck -9.55323 -2.51383 -6.65403
upperneck 12.5064 -3.8672 10.3912
head 5.66795 -1.47883 4.08336
rclavicle -3.23646e-015 1.47101e-014
rhumerus -34.0163 38.1525 -95.9622
rradius 96.9036
rwrist -26.7073
rhand -26.851 13.8827
rfingers 7.12502
rthumb -0.276221 -16.0968
lclavicle -3.23646e-015 1.47101e-014
lhumerus -28.2967 -40.2284 97.977
lradius 101.762
lwrist 39.2933
lhand -6.5217 23.4576
lfingers 7.12502
lthumb 19.3308 52.5168
rfemur 8.17459 16.6818 18.3851
rtibia 8.89988
rfoot -13.5932 -25.5189
rtoes -3.44903
lfemur 5.99612 -14.5485 -18.9199
ltibia 7.56932
lfoot -9.06919 18.8375
ltoes -8.82544
56
root 0.121759 18.8477 2.57179 -3.10437 0.345061 1.79718
lowerback 5.44643 1.40862 -2.05457
upperback 0.962429 1.72496 -1.41047
thorax -2.07891 0.870248 -0.421141
lowerneck -9.5912 -2.51757 -6.61745
upperneck 13.0133 -3.89961 10.2841
head 5.83199 -1.49151 4.04574
rclavicle -9.39258e-015 1.86858e-014
rhumerus -33.8998 38.1831 -95.9882
rradius 96.6961
rwrist -26.4494
rhand -27.232 13.801
rfingers 7.12502
rthumb -0.644193 -16.1777
lclavicle -9.39258e-015 1.86858e-014
lhumerus -28.4454 -40.2901 98.0139
lradius 101.727
lwrist 40.0885
lhand -7.44617 23.5031
lfingers 7.12502
lthumb 18.4417 52.6489
rfemur 8.15273 16.7779 18.4823
rtibia 8.80834
rfoot -13.5125 -25.5181
rtoes -3.39361
lfemur 5.90801 -14.4787 -18.8012
ltibia 7.67401
lfoot -9.10063 18.8404
ltoes -8.82646
57
root 0.123745 18.8486 2.5652 -3.06913 0.323531 1.7898
lowerback 5.48508 1.41326 -2.0184
upperback 0.924719 1.73071 -1.42855
thorax -2.13774 0.87327 -0.4621
lowerneck -9.62037 -2.51991 -6.63853
upperneck 13.4891 -3.92721 10.2352
head 5.98714 -1.50152 4.03689
rclavicle 2.52953e-014 -1.94809e-014
rhumerus -33.7182 38.2063 -95.9775
rradius 96.4597
rwrist -26.1682
rhand -27.8111 13.4817
rfingers 7.12502
rthumb -1.20342 -16.4946
lclavicle 2.52953e-014 -1.94809e-014
lhumerus -28.5904 -40.3496 98.052
lradius 101.696
lwrist 40.524
lhand -8.41152 23.687
lfingers 7.12502
lthumb 17.5128 52.9182
rfemur 8.11814 16.8258 18.4703
rtibia 8.76018
rfoot -13.4612 -25.5629
rtoes -3.50495
lfemur 5.81718 -14.4567 -18.7852
ltibia 7.72711
lfoot -9.08448 18.8609
ltoes -8.96833
58
root 0.127426 18.8488 2.56325 -3.01992 0.351463 1.88144
lowerback 5.37054 1.40922 -2.1024
upperback 0.945948 1.7243 -1.44681
thorax -2.05375 0.870094 -0.429894
lowerneck -9.6593 -2.54901 -6.68094
upperneck 13.9324 -3.98023 10.1574
head 6.13654 -1.52753 4.01972
rclavicle 9.03849e-015 -1.98785e-015
rhumerus -33.4723 38.2144 -95.8378
rradius 96.2754
rwrist -25.9415
rhand -28.1155 13.2399
rfingers 7.12502
rthumb -1.49747 -16.7346
lclavicle 9.03849e-015 -1.98785e-015
lhumerus -28.6181 -40.4046 98.0812
lradius 101.687
lwrist 40.7677
lhand -9.52765 23.7865
lfingers 7.12502
lthumb 16.4385 53.11
rfemur 8.06904 16.8316 18.3335
rtibia 8.7498
rfoot -13.4019 -25.6279
rtoes -3.80978
lfemur 5.74146 -14.4773 -18.883
ltibia 7.75018
lfoot -9.1388 18.8224
ltoes -8.73816
59
root 0.128069 18.8479 2.55853 -3.02889 0.37895 1.87658
lowerback 5.33295 1.39042 -2.16422
upperback 0.979252 1.69881 -1.40062
thorax -2.00145 0.857429 -0.344458
lowerneck -9.66759 -2.62015 -6.71011
upperneck 14.4109 -4.08221 9.98961
head 6.29457 -1.58398 3.96724
rclavicle 4.6528e-015 -2.78299e-015
rhumerus -33.2447 38.2348 -95.6588
rradius 96.0879
rwrist -25.6082
rhand -28.1438 13.2575
rfingers 7.12502
rthumb -1.52479 -16.7168
lclavicle 4.6528e-015 -2.78299e-015
lhumerus -28.5958 -40.389 98.1186
lradius 101.66
lwrist 40.9885
lhand -10.8519 23.7782
lfingers 7.12502
lthumb 15.1631 53.2027
rfemur 8.06858 16.8312 18.3362
rtibia 8.74211
rfoot -13.3602 -25.6531
rtoes -3.79597
lfemur 5.72943 -14.5059 -18.8735
ltibia 7.75613
lfoot -9.18418 18.7887
ltoes -8.44467
60
root 0.125247 18.8475 2.54911 -3.13094 0.372251 1.81355
lowerback 5.48515 1.37898 -2.17097
upperback 1.00564 1.67959 -1.35851
thorax -2.06056 0.848164 -0.29965
lowerneck -9.61798 -2.67998 -6.85368
upperneck 14.8947 -4.18376 10.0121
head 6.45063 -1.63406 3.99671
rclavicle 4.16205e-015 9.93923e-015
rhumerus -33.0216 38.244 -95.5486
rradius 95.8552
rwrist -25.2847
rhand -28.2614 13.503
rfingers 7.12502
rthumb -1.63841 -16.4705
lclavicle 4.16205e-015 9.93923e-015
lhumerus -28.6147 -40.3726 98.1383
lradius 101.593
lwrist 41.1942
lhand -12.077 23.8516
lfingers 7.12502
lthumb 13.9828 53.3614
rfemur 8.17609 16.8612 18.4511
rtibia 8.70208
rfoot -13.3459 -25.6856
rtoes -3.62565
lfemur 5.78081 -14.507 -18.8068
ltibia 7.80556
lfoot -9.21207 18.794
ltoes -8.28209
61
root 0.125098 18.8481 2.53746 -3.23642 0.367615 1.76024
lowerback 5.67784 1.36858 -2.12687
upperback 1.02866 1.66271 -1.34875
thorax -2.14334 0.839819 -0.317741
lowerneck -9.66391 -2.71849 -6.97832
upperneck 15.4644 -4.27126 10.0957
head 6.65117 -1.66804 4.04536
rclavicle -1.66234e-014 -3.57812e-015
rhumerus -32.7294 38.2741 -95.4477
rradius 95.5843
rwrist -25.0525
rhand -28.6826 13.6276
rfingers 7.12502
rthumb -2.0452 -16.3423
lclavicle -1.66234e-014 -3.57812e-015
lhumerus -28.6178 -40.4462 98.1087
lradius 101.504
lwrist 41.4852
lhand -13.3345 23.8396
lfingers 7.12502
lthumb 12.7707 53.429
rfemur 8.28641 16.8918 18.5394
rtibia 8.64118
rfoot -13.3172 -25.7366
rtoes -3.5615
lfemur 5.79591 -14.5093 -18.7596
ltibia 7.92112
lfoot -9.25593 18.795
ltoes -8.24551
